<mxfile host="app.diagrams.net" modified="2023-09-11T19:02:36.790Z" agent="Mozilla/5.0 (X11; Linux x86_64; rv:102.0) Gecko/20100101 Firefox/102.0" etag="cG_2sq8U-J0nViNcTS6B" version="21.7.4" type="github">
  <diagram name="Page-1" id="c37626ed-c26b-45fb-9056-f9ebc6bb27b6">
    <mxGraphModel dx="1605" dy="929" grid="1" gridSize="10" guides="1" tooltips="1" connect="1" arrows="1" fold="1" page="1" pageScale="1" pageWidth="1100" pageHeight="850" background="none" math="0" shadow="0">
      <root>
        <mxCell id="0" />
        <mxCell id="1" parent="0" />
        <mxCell id="50eyXMAdFKq9AuaouaL7-2" value="" style="shape=mxgraph.cisco.routers.router;sketch=0;html=1;pointerEvents=1;dashed=0;fillColor=#036897;strokeColor=#ffffff;strokeWidth=2;verticalLabelPosition=bottom;verticalAlign=top;align=center;outlineConnect=0;" parent="1" vertex="1">
          <mxGeometry x="343" y="71" width="78" height="54" as="geometry" />
        </mxCell>
        <mxCell id="50eyXMAdFKq9AuaouaL7-3" value="" style="shape=mxgraph.cisco.routers.router;sketch=0;html=1;pointerEvents=1;dashed=0;fillColor=#036897;strokeColor=#ffffff;strokeWidth=2;verticalLabelPosition=bottom;verticalAlign=top;align=center;outlineConnect=0;" parent="1" vertex="1">
          <mxGeometry x="343" y="221" width="78" height="54" as="geometry" />
        </mxCell>
        <mxCell id="50eyXMAdFKq9AuaouaL7-5" value="" style="endArrow=none;html=1;rounded=0;entryX=0.5;entryY=1;entryDx=0;entryDy=0;entryPerimeter=0;exitX=0.5;exitY=0;exitDx=0;exitDy=0;exitPerimeter=0;" parent="1" source="50eyXMAdFKq9AuaouaL7-3" target="50eyXMAdFKq9AuaouaL7-2" edge="1">
          <mxGeometry width="50" height="50" relative="1" as="geometry">
            <mxPoint x="483" y="321" as="sourcePoint" />
            <mxPoint x="533" y="271" as="targetPoint" />
          </mxGeometry>
        </mxCell>
        <mxCell id="50eyXMAdFKq9AuaouaL7-6" value="" style="shape=mxgraph.cisco.switches.layer_3_switch;sketch=0;html=1;pointerEvents=1;dashed=0;fillColor=#036897;strokeColor=#ffffff;strokeWidth=2;verticalLabelPosition=bottom;verticalAlign=top;align=center;outlineConnect=0;" parent="1" vertex="1">
          <mxGeometry x="213" y="66" width="64" height="64" as="geometry" />
        </mxCell>
        <mxCell id="50eyXMAdFKq9AuaouaL7-7" value="" style="shape=mxgraph.cisco.switches.layer_3_switch;sketch=0;html=1;pointerEvents=1;dashed=0;fillColor=#036897;strokeColor=#ffffff;strokeWidth=2;verticalLabelPosition=bottom;verticalAlign=top;align=center;outlineConnect=0;" parent="1" vertex="1">
          <mxGeometry x="213" y="216" width="64" height="64" as="geometry" />
        </mxCell>
        <mxCell id="50eyXMAdFKq9AuaouaL7-8" value="" style="endArrow=none;html=1;rounded=0;entryX=1;entryY=0.5;entryDx=0;entryDy=0;entryPerimeter=0;exitX=0;exitY=0.5;exitDx=0;exitDy=0;exitPerimeter=0;" parent="1" source="50eyXMAdFKq9AuaouaL7-2" target="50eyXMAdFKq9AuaouaL7-6" edge="1">
          <mxGeometry width="50" height="50" relative="1" as="geometry">
            <mxPoint x="513" y="291.5" as="sourcePoint" />
            <mxPoint x="563" y="241.5" as="targetPoint" />
          </mxGeometry>
        </mxCell>
        <mxCell id="50eyXMAdFKq9AuaouaL7-9" value="" style="endArrow=none;html=1;rounded=0;entryX=0;entryY=0.5;entryDx=0;entryDy=0;entryPerimeter=0;" parent="1" source="50eyXMAdFKq9AuaouaL7-7" target="50eyXMAdFKq9AuaouaL7-3" edge="1">
          <mxGeometry width="50" height="50" relative="1" as="geometry">
            <mxPoint x="313" y="311.5" as="sourcePoint" />
            <mxPoint x="363" y="261.5" as="targetPoint" />
          </mxGeometry>
        </mxCell>
        <mxCell id="50eyXMAdFKq9AuaouaL7-10" value="" style="endArrow=none;html=1;rounded=0;entryX=0.5;entryY=1;entryDx=0;entryDy=0;entryPerimeter=0;" parent="1" source="50eyXMAdFKq9AuaouaL7-7" target="50eyXMAdFKq9AuaouaL7-6" edge="1">
          <mxGeometry width="50" height="50" relative="1" as="geometry">
            <mxPoint x="513" y="291.5" as="sourcePoint" />
            <mxPoint x="563" y="241.5" as="targetPoint" />
          </mxGeometry>
        </mxCell>
        <mxCell id="50eyXMAdFKq9AuaouaL7-11" value="" style="shape=mxgraph.cisco.servers.fileserver;sketch=0;html=1;pointerEvents=1;dashed=0;fillColor=#036897;strokeColor=#ffffff;strokeWidth=2;verticalLabelPosition=bottom;verticalAlign=top;align=center;outlineConnect=0;" parent="1" vertex="1">
          <mxGeometry x="80" y="67" width="43" height="62" as="geometry" />
        </mxCell>
        <mxCell id="50eyXMAdFKq9AuaouaL7-12" value="" style="shape=mxgraph.cisco.servers.fileserver;sketch=0;html=1;pointerEvents=1;dashed=0;fillColor=#036897;strokeColor=#ffffff;strokeWidth=2;verticalLabelPosition=bottom;verticalAlign=top;align=center;outlineConnect=0;" parent="1" vertex="1">
          <mxGeometry x="80" y="217" width="43" height="62" as="geometry" />
        </mxCell>
        <mxCell id="50eyXMAdFKq9AuaouaL7-14" value="" style="endArrow=none;html=1;rounded=0;entryX=1;entryY=0.5;entryDx=0;entryDy=0;entryPerimeter=0;" parent="1" source="50eyXMAdFKq9AuaouaL7-6" target="50eyXMAdFKq9AuaouaL7-11" edge="1">
          <mxGeometry width="50" height="50" relative="1" as="geometry">
            <mxPoint x="503" y="277" as="sourcePoint" />
            <mxPoint x="553" y="227" as="targetPoint" />
          </mxGeometry>
        </mxCell>
        <mxCell id="50eyXMAdFKq9AuaouaL7-15" value="" style="endArrow=none;html=1;rounded=0;entryX=1;entryY=0.5;entryDx=0;entryDy=0;entryPerimeter=0;" parent="1" source="50eyXMAdFKq9AuaouaL7-7" target="50eyXMAdFKq9AuaouaL7-12" edge="1">
          <mxGeometry width="50" height="50" relative="1" as="geometry">
            <mxPoint x="503" y="277" as="sourcePoint" />
            <mxPoint x="553" y="227" as="targetPoint" />
          </mxGeometry>
        </mxCell>
        <mxCell id="50eyXMAdFKq9AuaouaL7-16" value="" style="endArrow=none;html=1;rounded=0;exitX=0.08;exitY=0.05;exitDx=0;exitDy=0;exitPerimeter=0;entryX=0.88;entryY=0.92;entryDx=0;entryDy=0;entryPerimeter=0;" parent="1" source="50eyXMAdFKq9AuaouaL7-7" target="50eyXMAdFKq9AuaouaL7-11" edge="1">
          <mxGeometry width="50" height="50" relative="1" as="geometry">
            <mxPoint x="583" y="237" as="sourcePoint" />
            <mxPoint x="633" y="187" as="targetPoint" />
          </mxGeometry>
        </mxCell>
        <mxCell id="50eyXMAdFKq9AuaouaL7-17" value="" style="endArrow=none;html=1;rounded=0;exitX=1;exitY=0;exitDx=0;exitDy=0;exitPerimeter=0;" parent="1" source="50eyXMAdFKq9AuaouaL7-12" target="50eyXMAdFKq9AuaouaL7-6" edge="1">
          <mxGeometry width="50" height="50" relative="1" as="geometry">
            <mxPoint x="583" y="237" as="sourcePoint" />
            <mxPoint x="633" y="187" as="targetPoint" />
          </mxGeometry>
        </mxCell>
        <mxCell id="50eyXMAdFKq9AuaouaL7-18" value="" style="shape=mxgraph.cisco.routers.router;sketch=0;html=1;pointerEvents=1;dashed=0;fillColor=#036897;strokeColor=#ffffff;strokeWidth=2;verticalLabelPosition=bottom;verticalAlign=top;align=center;outlineConnect=0;" parent="1" vertex="1">
          <mxGeometry x="953" y="71" width="78" height="54" as="geometry" />
        </mxCell>
        <mxCell id="50eyXMAdFKq9AuaouaL7-19" value="" style="shape=mxgraph.cisco.routers.router;sketch=0;html=1;pointerEvents=1;dashed=0;fillColor=#036897;strokeColor=#ffffff;strokeWidth=2;verticalLabelPosition=bottom;verticalAlign=top;align=center;outlineConnect=0;" parent="1" vertex="1">
          <mxGeometry x="953" y="231" width="78" height="57" as="geometry" />
        </mxCell>
        <mxCell id="50eyXMAdFKq9AuaouaL7-20" value="" style="endArrow=none;html=1;rounded=0;exitX=0.5;exitY=0;exitDx=0;exitDy=0;exitPerimeter=0;" parent="1" source="50eyXMAdFKq9AuaouaL7-19" target="50eyXMAdFKq9AuaouaL7-18" edge="1">
          <mxGeometry width="50" height="50" relative="1" as="geometry">
            <mxPoint x="1093" y="321" as="sourcePoint" />
            <mxPoint x="1143" y="271" as="targetPoint" />
          </mxGeometry>
        </mxCell>
        <mxCell id="50eyXMAdFKq9AuaouaL7-21" value="" style="shape=mxgraph.cisco.switches.layer_3_switch;sketch=0;html=1;pointerEvents=1;dashed=0;fillColor=#036897;strokeColor=#ffffff;strokeWidth=2;verticalLabelPosition=bottom;verticalAlign=top;align=center;outlineConnect=0;" parent="1" vertex="1">
          <mxGeometry x="693" y="67" width="64" height="64" as="geometry" />
        </mxCell>
        <mxCell id="50eyXMAdFKq9AuaouaL7-22" value="" style="shape=mxgraph.cisco.switches.layer_3_switch;sketch=0;html=1;pointerEvents=1;dashed=0;fillColor=#036897;strokeColor=#ffffff;strokeWidth=2;verticalLabelPosition=bottom;verticalAlign=top;align=center;outlineConnect=0;" parent="1" vertex="1">
          <mxGeometry x="693" y="228" width="64" height="64" as="geometry" />
        </mxCell>
        <mxCell id="50eyXMAdFKq9AuaouaL7-25" value="" style="endArrow=none;html=1;rounded=0;entryX=0.5;entryY=1;entryDx=0;entryDy=0;entryPerimeter=0;" parent="1" source="50eyXMAdFKq9AuaouaL7-22" target="50eyXMAdFKq9AuaouaL7-21" edge="1">
          <mxGeometry width="50" height="50" relative="1" as="geometry">
            <mxPoint x="993" y="296.5" as="sourcePoint" />
            <mxPoint x="1043" y="246.5" as="targetPoint" />
          </mxGeometry>
        </mxCell>
        <mxCell id="50eyXMAdFKq9AuaouaL7-116" style="rounded=0;orthogonalLoop=1;jettySize=auto;html=1;exitX=0.88;exitY=0.92;exitDx=0;exitDy=0;exitPerimeter=0;entryX=0.08;entryY=0.05;entryDx=0;entryDy=0;entryPerimeter=0;endArrow=none;endFill=0;" parent="1" source="50eyXMAdFKq9AuaouaL7-26" target="50eyXMAdFKq9AuaouaL7-22" edge="1">
          <mxGeometry relative="1" as="geometry" />
        </mxCell>
        <mxCell id="50eyXMAdFKq9AuaouaL7-26" value="" style="shape=mxgraph.cisco.servers.fileserver;sketch=0;html=1;pointerEvents=1;dashed=0;fillColor=#036897;strokeColor=#ffffff;strokeWidth=2;verticalLabelPosition=bottom;verticalAlign=top;align=center;outlineConnect=0;" parent="1" vertex="1">
          <mxGeometry x="560" y="68" width="43" height="62" as="geometry" />
        </mxCell>
        <mxCell id="50eyXMAdFKq9AuaouaL7-27" value="" style="shape=mxgraph.cisco.servers.fileserver;sketch=0;html=1;pointerEvents=1;dashed=0;fillColor=#036897;strokeColor=#ffffff;strokeWidth=2;verticalLabelPosition=bottom;verticalAlign=top;align=center;outlineConnect=0;" parent="1" vertex="1">
          <mxGeometry x="560" y="229" width="43" height="62" as="geometry" />
        </mxCell>
        <mxCell id="50eyXMAdFKq9AuaouaL7-28" value="" style="endArrow=none;html=1;rounded=0;entryX=1;entryY=0.5;entryDx=0;entryDy=0;entryPerimeter=0;" parent="1" source="50eyXMAdFKq9AuaouaL7-21" target="50eyXMAdFKq9AuaouaL7-26" edge="1">
          <mxGeometry width="50" height="50" relative="1" as="geometry">
            <mxPoint x="983" y="282" as="sourcePoint" />
            <mxPoint x="1033" y="232" as="targetPoint" />
          </mxGeometry>
        </mxCell>
        <mxCell id="50eyXMAdFKq9AuaouaL7-29" value="" style="endArrow=none;html=1;rounded=0;entryX=1;entryY=0.5;entryDx=0;entryDy=0;entryPerimeter=0;" parent="1" source="50eyXMAdFKq9AuaouaL7-22" target="50eyXMAdFKq9AuaouaL7-27" edge="1">
          <mxGeometry width="50" height="50" relative="1" as="geometry">
            <mxPoint x="983" y="282" as="sourcePoint" />
            <mxPoint x="1033" y="232" as="targetPoint" />
          </mxGeometry>
        </mxCell>
        <mxCell id="50eyXMAdFKq9AuaouaL7-31" value="" style="endArrow=none;html=1;rounded=0;exitX=1;exitY=0;exitDx=0;exitDy=0;exitPerimeter=0;" parent="1" source="50eyXMAdFKq9AuaouaL7-27" target="50eyXMAdFKq9AuaouaL7-21" edge="1">
          <mxGeometry width="50" height="50" relative="1" as="geometry">
            <mxPoint x="1063" y="242" as="sourcePoint" />
            <mxPoint x="1113" y="192" as="targetPoint" />
          </mxGeometry>
        </mxCell>
        <mxCell id="50eyXMAdFKq9AuaouaL7-43" style="edgeStyle=orthogonalEdgeStyle;rounded=0;orthogonalLoop=1;jettySize=auto;html=1;exitX=1;exitY=0.5;exitDx=0;exitDy=0;exitPerimeter=0;endArrow=none;endFill=0;" parent="1" source="50eyXMAdFKq9AuaouaL7-33" target="50eyXMAdFKq9AuaouaL7-19" edge="1">
          <mxGeometry relative="1" as="geometry" />
        </mxCell>
        <mxCell id="50eyXMAdFKq9AuaouaL7-33" value="" style="shape=mxgraph.cisco.security.pix_firewall;sketch=0;html=1;pointerEvents=1;dashed=0;fillColor=#036897;strokeColor=#ffffff;strokeWidth=2;verticalLabelPosition=bottom;verticalAlign=top;align=center;outlineConnect=0;" parent="1" vertex="1">
          <mxGeometry x="818" y="234" width="77" height="51" as="geometry" />
        </mxCell>
        <mxCell id="50eyXMAdFKq9AuaouaL7-42" style="edgeStyle=orthogonalEdgeStyle;rounded=0;orthogonalLoop=1;jettySize=auto;html=1;exitX=1;exitY=0.5;exitDx=0;exitDy=0;exitPerimeter=0;endArrow=none;endFill=0;" parent="1" source="50eyXMAdFKq9AuaouaL7-35" target="50eyXMAdFKq9AuaouaL7-18" edge="1">
          <mxGeometry relative="1" as="geometry" />
        </mxCell>
        <mxCell id="50eyXMAdFKq9AuaouaL7-35" value="" style="shape=mxgraph.cisco.security.pix_firewall;sketch=0;html=1;pointerEvents=1;dashed=0;fillColor=#036897;strokeColor=#ffffff;strokeWidth=2;verticalLabelPosition=bottom;verticalAlign=top;align=center;outlineConnect=0;" parent="1" vertex="1">
          <mxGeometry x="818" y="73" width="77" height="51" as="geometry" />
        </mxCell>
        <mxCell id="50eyXMAdFKq9AuaouaL7-38" value="" style="endArrow=none;html=1;rounded=0;entryX=1;entryY=0.5;entryDx=0;entryDy=0;entryPerimeter=0;" parent="1" source="50eyXMAdFKq9AuaouaL7-35" target="50eyXMAdFKq9AuaouaL7-21" edge="1">
          <mxGeometry width="50" height="50" relative="1" as="geometry">
            <mxPoint x="833" y="251" as="sourcePoint" />
            <mxPoint x="773" y="111" as="targetPoint" />
          </mxGeometry>
        </mxCell>
        <mxCell id="50eyXMAdFKq9AuaouaL7-39" value="" style="endArrow=none;html=1;rounded=0;exitX=1;exitY=0.5;exitDx=0;exitDy=0;exitPerimeter=0;" parent="1" source="50eyXMAdFKq9AuaouaL7-22" target="50eyXMAdFKq9AuaouaL7-33" edge="1">
          <mxGeometry width="50" height="50" relative="1" as="geometry">
            <mxPoint x="803" y="191" as="sourcePoint" />
            <mxPoint x="853" y="141" as="targetPoint" />
          </mxGeometry>
        </mxCell>
        <mxCell id="50eyXMAdFKq9AuaouaL7-41" value="" style="endArrow=none;html=1;rounded=0;entryX=0.5;entryY=1;entryDx=0;entryDy=0;entryPerimeter=0;exitX=0.5;exitY=0;exitDx=0;exitDy=0;exitPerimeter=0;" parent="1" source="50eyXMAdFKq9AuaouaL7-33" target="50eyXMAdFKq9AuaouaL7-35" edge="1">
          <mxGeometry width="50" height="50" relative="1" as="geometry">
            <mxPoint x="798" y="191" as="sourcePoint" />
            <mxPoint x="848" y="141" as="targetPoint" />
          </mxGeometry>
        </mxCell>
        <mxCell id="50eyXMAdFKq9AuaouaL7-45" value="L3" style="text;html=1;align=center;verticalAlign=middle;resizable=0;points=[];autosize=1;strokeColor=none;fillColor=none;" parent="1" vertex="1">
          <mxGeometry x="293" y="69" width="40" height="30" as="geometry" />
        </mxCell>
        <mxCell id="50eyXMAdFKq9AuaouaL7-46" value="L3" style="text;html=1;align=center;verticalAlign=middle;resizable=0;points=[];autosize=1;strokeColor=none;fillColor=none;" parent="1" vertex="1">
          <mxGeometry x="293" y="218" width="40" height="30" as="geometry" />
        </mxCell>
        <mxCell id="50eyXMAdFKq9AuaouaL7-47" value="L3" style="text;html=1;align=center;verticalAlign=middle;resizable=0;points=[];autosize=1;strokeColor=none;fillColor=none;" parent="1" vertex="1">
          <mxGeometry x="373" y="156" width="40" height="30" as="geometry" />
        </mxCell>
        <mxCell id="50eyXMAdFKq9AuaouaL7-51" value="L2" style="text;html=1;align=center;verticalAlign=middle;resizable=0;points=[];autosize=1;strokeColor=none;fillColor=none;" parent="1" vertex="1">
          <mxGeometry x="149" y="138" width="40" height="30" as="geometry" />
        </mxCell>
        <mxCell id="50eyXMAdFKq9AuaouaL7-52" value="L3" style="text;html=1;align=center;verticalAlign=middle;resizable=0;points=[];autosize=1;strokeColor=none;fillColor=none;" parent="1" vertex="1">
          <mxGeometry x="983" y="158" width="40" height="30" as="geometry" />
        </mxCell>
        <mxCell id="50eyXMAdFKq9AuaouaL7-53" value="L3" style="text;html=1;align=center;verticalAlign=middle;resizable=0;points=[];autosize=1;strokeColor=none;fillColor=none;" parent="1" vertex="1">
          <mxGeometry x="903" y="71" width="40" height="30" as="geometry" />
        </mxCell>
        <mxCell id="50eyXMAdFKq9AuaouaL7-54" value="L3" style="text;html=1;align=center;verticalAlign=middle;resizable=0;points=[];autosize=1;strokeColor=none;fillColor=none;" parent="1" vertex="1">
          <mxGeometry x="903" y="229" width="40" height="30" as="geometry" />
        </mxCell>
        <mxCell id="50eyXMAdFKq9AuaouaL7-55" value="L3" style="text;html=1;align=center;verticalAlign=middle;resizable=0;points=[];autosize=1;strokeColor=none;fillColor=none;" parent="1" vertex="1">
          <mxGeometry x="763" y="71" width="40" height="30" as="geometry" />
        </mxCell>
        <mxCell id="50eyXMAdFKq9AuaouaL7-56" value="L3" style="text;html=1;align=center;verticalAlign=middle;resizable=0;points=[];autosize=1;strokeColor=none;fillColor=none;" parent="1" vertex="1">
          <mxGeometry x="763" y="231" width="40" height="30" as="geometry" />
        </mxCell>
        <mxCell id="50eyXMAdFKq9AuaouaL7-60" value="L2" style="text;html=1;align=center;verticalAlign=middle;resizable=0;points=[];autosize=1;strokeColor=none;fillColor=none;" parent="1" vertex="1">
          <mxGeometry x="630" y="142" width="40" height="30" as="geometry" />
        </mxCell>
        <mxCell id="50eyXMAdFKq9AuaouaL7-61" value="" style="shape=mxgraph.cisco.routers.router;sketch=0;html=1;pointerEvents=1;dashed=0;fillColor=#036897;strokeColor=#ffffff;strokeWidth=2;verticalLabelPosition=bottom;verticalAlign=top;align=center;outlineConnect=0;" parent="1" vertex="1">
          <mxGeometry x="358.75" y="479" width="78" height="54" as="geometry" />
        </mxCell>
        <mxCell id="50eyXMAdFKq9AuaouaL7-93" style="edgeStyle=orthogonalEdgeStyle;rounded=0;orthogonalLoop=1;jettySize=auto;html=1;exitX=0.5;exitY=0;exitDx=0;exitDy=0;exitPerimeter=0;endArrow=none;endFill=0;" parent="1" source="50eyXMAdFKq9AuaouaL7-62" target="50eyXMAdFKq9AuaouaL7-61" edge="1">
          <mxGeometry relative="1" as="geometry" />
        </mxCell>
        <mxCell id="50eyXMAdFKq9AuaouaL7-62" value="" style="shape=mxgraph.cisco.routers.router;sketch=0;html=1;pointerEvents=1;dashed=0;fillColor=#036897;strokeColor=#ffffff;strokeWidth=2;verticalLabelPosition=bottom;verticalAlign=top;align=center;outlineConnect=0;" parent="1" vertex="1">
          <mxGeometry x="358.75" y="639" width="78" height="57" as="geometry" />
        </mxCell>
        <mxCell id="50eyXMAdFKq9AuaouaL7-91" style="edgeStyle=orthogonalEdgeStyle;rounded=0;orthogonalLoop=1;jettySize=auto;html=1;exitX=1;exitY=0.5;exitDx=0;exitDy=0;exitPerimeter=0;endArrow=none;endFill=0;" parent="1" source="50eyXMAdFKq9AuaouaL7-64" target="50eyXMAdFKq9AuaouaL7-61" edge="1">
          <mxGeometry relative="1" as="geometry" />
        </mxCell>
        <mxCell id="50eyXMAdFKq9AuaouaL7-94" style="edgeStyle=orthogonalEdgeStyle;rounded=0;orthogonalLoop=1;jettySize=auto;html=1;exitX=0.5;exitY=1;exitDx=0;exitDy=0;exitPerimeter=0;endArrow=none;endFill=0;" parent="1" source="50eyXMAdFKq9AuaouaL7-64" target="50eyXMAdFKq9AuaouaL7-65" edge="1">
          <mxGeometry relative="1" as="geometry" />
        </mxCell>
        <mxCell id="50eyXMAdFKq9AuaouaL7-64" value="" style="shape=mxgraph.cisco.switches.layer_3_switch;sketch=0;html=1;pointerEvents=1;dashed=0;fillColor=#036897;strokeColor=#ffffff;strokeWidth=2;verticalLabelPosition=bottom;verticalAlign=top;align=center;outlineConnect=0;" parent="1" vertex="1">
          <mxGeometry x="214.75" y="474" width="64" height="64" as="geometry" />
        </mxCell>
        <mxCell id="50eyXMAdFKq9AuaouaL7-92" style="edgeStyle=orthogonalEdgeStyle;rounded=0;orthogonalLoop=1;jettySize=auto;html=1;exitX=1;exitY=0.5;exitDx=0;exitDy=0;exitPerimeter=0;entryX=0;entryY=0.5;entryDx=0;entryDy=0;entryPerimeter=0;endArrow=none;endFill=0;" parent="1" source="50eyXMAdFKq9AuaouaL7-65" target="50eyXMAdFKq9AuaouaL7-62" edge="1">
          <mxGeometry relative="1" as="geometry" />
        </mxCell>
        <mxCell id="50eyXMAdFKq9AuaouaL7-65" value="" style="shape=mxgraph.cisco.switches.layer_3_switch;sketch=0;html=1;pointerEvents=1;dashed=0;fillColor=#036897;strokeColor=#ffffff;strokeWidth=2;verticalLabelPosition=bottom;verticalAlign=top;align=center;outlineConnect=0;" parent="1" vertex="1">
          <mxGeometry x="214.75" y="635" width="64" height="64" as="geometry" />
        </mxCell>
        <mxCell id="50eyXMAdFKq9AuaouaL7-67" value="" style="shape=mxgraph.cisco.servers.fileserver;sketch=0;html=1;pointerEvents=1;dashed=0;fillColor=#036897;strokeColor=#ffffff;strokeWidth=2;verticalLabelPosition=bottom;verticalAlign=top;align=center;outlineConnect=0;" parent="1" vertex="1">
          <mxGeometry x="85.5" y="475" width="43" height="62" as="geometry" />
        </mxCell>
        <mxCell id="50eyXMAdFKq9AuaouaL7-68" value="" style="shape=mxgraph.cisco.servers.fileserver;sketch=0;html=1;pointerEvents=1;dashed=0;fillColor=#036897;strokeColor=#ffffff;strokeWidth=2;verticalLabelPosition=bottom;verticalAlign=top;align=center;outlineConnect=0;" parent="1" vertex="1">
          <mxGeometry x="85" y="636" width="43" height="62" as="geometry" />
        </mxCell>
        <mxCell id="50eyXMAdFKq9AuaouaL7-95" style="edgeStyle=orthogonalEdgeStyle;rounded=0;orthogonalLoop=1;jettySize=auto;html=1;exitX=0.5;exitY=0;exitDx=0;exitDy=0;exitPerimeter=0;endArrow=none;endFill=0;" parent="1" source="50eyXMAdFKq9AuaouaL7-74" target="50eyXMAdFKq9AuaouaL7-65" edge="1">
          <mxGeometry relative="1" as="geometry" />
        </mxCell>
        <mxCell id="50eyXMAdFKq9AuaouaL7-100" style="edgeStyle=orthogonalEdgeStyle;rounded=0;orthogonalLoop=1;jettySize=auto;html=1;exitX=0.5;exitY=1;exitDx=0;exitDy=0;exitPerimeter=0;endArrow=none;endFill=0;" parent="1" source="50eyXMAdFKq9AuaouaL7-76" target="50eyXMAdFKq9AuaouaL7-64" edge="1">
          <mxGeometry relative="1" as="geometry" />
        </mxCell>
        <mxCell id="50eyXMAdFKq9AuaouaL7-76" value="" style="shape=mxgraph.cisco.security.pix_firewall;sketch=0;html=1;pointerEvents=1;dashed=0;fillColor=#036897;strokeColor=#ffffff;strokeWidth=2;verticalLabelPosition=bottom;verticalAlign=top;align=center;outlineConnect=0;" parent="1" vertex="1">
          <mxGeometry x="208.25" y="373" width="77" height="51" as="geometry" />
        </mxCell>
        <mxCell id="50eyXMAdFKq9AuaouaL7-101" value="" style="endArrow=none;html=1;rounded=0;entryX=1;entryY=0.5;entryDx=0;entryDy=0;entryPerimeter=0;exitX=0;exitY=0.5;exitDx=0;exitDy=0;exitPerimeter=0;" parent="1" source="50eyXMAdFKq9AuaouaL7-64" target="50eyXMAdFKq9AuaouaL7-67" edge="1">
          <mxGeometry width="50" height="50" relative="1" as="geometry">
            <mxPoint x="-13" y="672" as="sourcePoint" />
            <mxPoint x="37" y="622" as="targetPoint" />
          </mxGeometry>
        </mxCell>
        <mxCell id="50eyXMAdFKq9AuaouaL7-102" value="" style="endArrow=none;html=1;rounded=0;entryX=0.88;entryY=0.92;entryDx=0;entryDy=0;entryPerimeter=0;exitX=0.08;exitY=0.05;exitDx=0;exitDy=0;exitPerimeter=0;" parent="1" source="50eyXMAdFKq9AuaouaL7-65" target="50eyXMAdFKq9AuaouaL7-67" edge="1">
          <mxGeometry width="50" height="50" relative="1" as="geometry">
            <mxPoint x="-13" y="672" as="sourcePoint" />
            <mxPoint x="37" y="622" as="targetPoint" />
          </mxGeometry>
        </mxCell>
        <mxCell id="50eyXMAdFKq9AuaouaL7-103" value="" style="endArrow=none;html=1;rounded=0;entryX=0;entryY=1;entryDx=0;entryDy=0;entryPerimeter=0;" parent="1" source="50eyXMAdFKq9AuaouaL7-68" target="50eyXMAdFKq9AuaouaL7-64" edge="1">
          <mxGeometry width="50" height="50" relative="1" as="geometry">
            <mxPoint x="-13" y="672" as="sourcePoint" />
            <mxPoint x="37" y="622" as="targetPoint" />
          </mxGeometry>
        </mxCell>
        <mxCell id="50eyXMAdFKq9AuaouaL7-104" value="" style="endArrow=none;html=1;rounded=0;exitX=1;exitY=0.5;exitDx=0;exitDy=0;exitPerimeter=0;" parent="1" source="50eyXMAdFKq9AuaouaL7-68" target="50eyXMAdFKq9AuaouaL7-65" edge="1">
          <mxGeometry width="50" height="50" relative="1" as="geometry">
            <mxPoint x="-13" y="672" as="sourcePoint" />
            <mxPoint x="37" y="622" as="targetPoint" />
          </mxGeometry>
        </mxCell>
        <mxCell id="50eyXMAdFKq9AuaouaL7-105" value="L3" style="text;html=1;align=center;verticalAlign=middle;resizable=0;points=[];autosize=1;strokeColor=none;fillColor=none;" parent="1" vertex="1">
          <mxGeometry x="396.75" y="572" width="40" height="30" as="geometry" />
        </mxCell>
        <mxCell id="50eyXMAdFKq9AuaouaL7-106" value="L3" style="text;html=1;align=center;verticalAlign=middle;resizable=0;points=[];autosize=1;strokeColor=none;fillColor=none;" parent="1" vertex="1">
          <mxGeometry x="300" y="479" width="40" height="30" as="geometry" />
        </mxCell>
        <mxCell id="50eyXMAdFKq9AuaouaL7-107" value="L3" style="text;html=1;align=center;verticalAlign=middle;resizable=0;points=[];autosize=1;strokeColor=none;fillColor=none;" parent="1" vertex="1">
          <mxGeometry x="300" y="636" width="40" height="30" as="geometry" />
        </mxCell>
        <mxCell id="50eyXMAdFKq9AuaouaL7-108" value="L2" style="text;html=1;align=center;verticalAlign=middle;resizable=0;points=[];autosize=1;strokeColor=none;fillColor=none;" parent="1" vertex="1">
          <mxGeometry x="154" y="549" width="40" height="30" as="geometry" />
        </mxCell>
        <mxCell id="50eyXMAdFKq9AuaouaL7-109" value="L3" style="text;html=1;align=center;verticalAlign=middle;resizable=0;points=[];autosize=1;strokeColor=none;fillColor=none;" parent="1" vertex="1">
          <mxGeometry x="245.25" y="432" width="40" height="30" as="geometry" />
        </mxCell>
        <mxCell id="50eyXMAdFKq9AuaouaL7-111" value="L3" style="text;html=1;align=center;verticalAlign=middle;resizable=0;points=[];autosize=1;strokeColor=none;fillColor=none;" parent="1" vertex="1">
          <mxGeometry x="245.25" y="703" width="40" height="30" as="geometry" />
        </mxCell>
        <mxCell id="50eyXMAdFKq9AuaouaL7-117" value="" style="endArrow=none;html=1;rounded=0;" parent="1" edge="1">
          <mxGeometry width="50" height="50" relative="1" as="geometry">
            <mxPoint x="232.75" y="474" as="sourcePoint" />
            <mxPoint x="232.75" y="424" as="targetPoint" />
          </mxGeometry>
        </mxCell>
        <mxCell id="50eyXMAdFKq9AuaouaL7-118" value="" style="endArrow=none;html=1;rounded=0;" parent="1" edge="1">
          <mxGeometry width="50" height="50" relative="1" as="geometry">
            <mxPoint x="232" y="748" as="sourcePoint" />
            <mxPoint x="232" y="698" as="targetPoint" />
          </mxGeometry>
        </mxCell>
        <mxCell id="50eyXMAdFKq9AuaouaL7-74" value="" style="shape=mxgraph.cisco.security.pix_firewall;sketch=0;html=1;pointerEvents=1;dashed=0;fillColor=#036897;strokeColor=#ffffff;strokeWidth=2;verticalLabelPosition=bottom;verticalAlign=top;align=center;outlineConnect=0;" parent="1" vertex="1">
          <mxGeometry x="208.25" y="742" width="77" height="51" as="geometry" />
        </mxCell>
        <mxCell id="w8u5icsETcRtnx7S4hsD-54" value="&lt;div&gt;A/S&lt;/div&gt;&lt;div&gt;MLAG(VPC)&lt;br&gt;&lt;/div&gt;" style="text;html=1;strokeColor=none;fillColor=none;align=left;verticalAlign=middle;whiteSpace=wrap;rounded=0;" vertex="1" parent="1">
          <mxGeometry x="71.5" y="158" width="60" height="30" as="geometry" />
        </mxCell>
        <mxCell id="w8u5icsETcRtnx7S4hsD-55" value="&lt;div&gt;A/S&lt;/div&gt;&lt;div&gt;MLAG(VPC)&lt;br&gt;&lt;/div&gt;" style="text;html=1;strokeColor=none;fillColor=none;align=left;verticalAlign=middle;whiteSpace=wrap;rounded=0;" vertex="1" parent="1">
          <mxGeometry x="76.5" y="572" width="60" height="30" as="geometry" />
        </mxCell>
        <mxCell id="w8u5icsETcRtnx7S4hsD-56" value="&lt;div&gt;A/S&lt;/div&gt;&lt;div&gt;MLAG(VPC)&lt;br&gt;&lt;/div&gt;" style="text;html=1;strokeColor=none;fillColor=none;align=left;verticalAlign=middle;whiteSpace=wrap;rounded=0;" vertex="1" parent="1">
          <mxGeometry x="543" y="168" width="60" height="30" as="geometry" />
        </mxCell>
        <mxCell id="w8u5icsETcRtnx7S4hsD-57" value="" style="shape=mxgraph.cisco.routers.router;sketch=0;html=1;pointerEvents=1;dashed=0;fillColor=#036897;strokeColor=#ffffff;strokeWidth=2;verticalLabelPosition=bottom;verticalAlign=top;align=center;outlineConnect=0;" vertex="1" parent="1">
          <mxGeometry x="1461.5" y="40" width="78" height="54" as="geometry" />
        </mxCell>
        <mxCell id="w8u5icsETcRtnx7S4hsD-58" value="" style="shape=mxgraph.cisco.routers.router;sketch=0;html=1;pointerEvents=1;dashed=0;fillColor=#036897;strokeColor=#ffffff;strokeWidth=2;verticalLabelPosition=bottom;verticalAlign=top;align=center;outlineConnect=0;" vertex="1" parent="1">
          <mxGeometry x="1461.5" y="190" width="78" height="54" as="geometry" />
        </mxCell>
        <mxCell id="w8u5icsETcRtnx7S4hsD-59" value="" style="endArrow=none;html=1;rounded=0;entryX=0.5;entryY=1;entryDx=0;entryDy=0;entryPerimeter=0;exitX=0.5;exitY=0;exitDx=0;exitDy=0;exitPerimeter=0;" edge="1" parent="1" source="w8u5icsETcRtnx7S4hsD-58" target="w8u5icsETcRtnx7S4hsD-57">
          <mxGeometry width="50" height="50" relative="1" as="geometry">
            <mxPoint x="1601.5" y="290" as="sourcePoint" />
            <mxPoint x="1651.5" y="240" as="targetPoint" />
          </mxGeometry>
        </mxCell>
        <mxCell id="w8u5icsETcRtnx7S4hsD-60" value="" style="shape=mxgraph.cisco.switches.layer_3_switch;sketch=0;html=1;pointerEvents=1;dashed=0;fillColor=#036897;strokeColor=#ffffff;strokeWidth=2;verticalLabelPosition=bottom;verticalAlign=top;align=center;outlineConnect=0;" vertex="1" parent="1">
          <mxGeometry x="1331.5" y="35" width="64" height="64" as="geometry" />
        </mxCell>
        <mxCell id="w8u5icsETcRtnx7S4hsD-61" value="" style="shape=mxgraph.cisco.switches.layer_3_switch;sketch=0;html=1;pointerEvents=1;dashed=0;fillColor=#036897;strokeColor=#ffffff;strokeWidth=2;verticalLabelPosition=bottom;verticalAlign=top;align=center;outlineConnect=0;" vertex="1" parent="1">
          <mxGeometry x="1331.5" y="185" width="64" height="64" as="geometry" />
        </mxCell>
        <mxCell id="w8u5icsETcRtnx7S4hsD-62" value="" style="endArrow=none;html=1;rounded=0;entryX=1;entryY=0.5;entryDx=0;entryDy=0;entryPerimeter=0;exitX=0;exitY=0.5;exitDx=0;exitDy=0;exitPerimeter=0;" edge="1" parent="1" source="w8u5icsETcRtnx7S4hsD-57" target="w8u5icsETcRtnx7S4hsD-60">
          <mxGeometry width="50" height="50" relative="1" as="geometry">
            <mxPoint x="1631.5" y="260.5" as="sourcePoint" />
            <mxPoint x="1681.5" y="210.5" as="targetPoint" />
          </mxGeometry>
        </mxCell>
        <mxCell id="w8u5icsETcRtnx7S4hsD-63" value="" style="endArrow=none;html=1;rounded=0;entryX=0;entryY=0.5;entryDx=0;entryDy=0;entryPerimeter=0;" edge="1" parent="1" source="w8u5icsETcRtnx7S4hsD-61" target="w8u5icsETcRtnx7S4hsD-58">
          <mxGeometry width="50" height="50" relative="1" as="geometry">
            <mxPoint x="1431.5" y="280.5" as="sourcePoint" />
            <mxPoint x="1481.5" y="230.5" as="targetPoint" />
          </mxGeometry>
        </mxCell>
        <mxCell id="w8u5icsETcRtnx7S4hsD-64" value="" style="endArrow=none;html=1;rounded=0;entryX=0.5;entryY=1;entryDx=0;entryDy=0;entryPerimeter=0;" edge="1" parent="1" source="w8u5icsETcRtnx7S4hsD-61" target="w8u5icsETcRtnx7S4hsD-60">
          <mxGeometry width="50" height="50" relative="1" as="geometry">
            <mxPoint x="1631.5" y="260.5" as="sourcePoint" />
            <mxPoint x="1681.5" y="210.5" as="targetPoint" />
          </mxGeometry>
        </mxCell>
        <mxCell id="w8u5icsETcRtnx7S4hsD-65" value="" style="shape=mxgraph.cisco.servers.fileserver;sketch=0;html=1;pointerEvents=1;dashed=0;fillColor=#036897;strokeColor=#ffffff;strokeWidth=2;verticalLabelPosition=bottom;verticalAlign=top;align=center;outlineConnect=0;" vertex="1" parent="1">
          <mxGeometry x="1198.5" y="36" width="43" height="62" as="geometry" />
        </mxCell>
        <mxCell id="w8u5icsETcRtnx7S4hsD-66" value="" style="shape=mxgraph.cisco.servers.fileserver;sketch=0;html=1;pointerEvents=1;dashed=0;fillColor=#036897;strokeColor=#ffffff;strokeWidth=2;verticalLabelPosition=bottom;verticalAlign=top;align=center;outlineConnect=0;" vertex="1" parent="1">
          <mxGeometry x="1198.5" y="186" width="43" height="62" as="geometry" />
        </mxCell>
        <mxCell id="w8u5icsETcRtnx7S4hsD-67" value="" style="endArrow=none;html=1;rounded=0;entryX=1;entryY=0.5;entryDx=0;entryDy=0;entryPerimeter=0;" edge="1" parent="1" source="w8u5icsETcRtnx7S4hsD-60" target="w8u5icsETcRtnx7S4hsD-65">
          <mxGeometry width="50" height="50" relative="1" as="geometry">
            <mxPoint x="1621.5" y="246" as="sourcePoint" />
            <mxPoint x="1671.5" y="196" as="targetPoint" />
          </mxGeometry>
        </mxCell>
        <mxCell id="w8u5icsETcRtnx7S4hsD-68" value="" style="endArrow=none;html=1;rounded=0;entryX=1;entryY=0.5;entryDx=0;entryDy=0;entryPerimeter=0;" edge="1" parent="1" source="w8u5icsETcRtnx7S4hsD-61" target="w8u5icsETcRtnx7S4hsD-66">
          <mxGeometry width="50" height="50" relative="1" as="geometry">
            <mxPoint x="1621.5" y="246" as="sourcePoint" />
            <mxPoint x="1671.5" y="196" as="targetPoint" />
          </mxGeometry>
        </mxCell>
        <mxCell id="w8u5icsETcRtnx7S4hsD-69" value="" style="endArrow=none;html=1;rounded=0;exitX=0.08;exitY=0.05;exitDx=0;exitDy=0;exitPerimeter=0;entryX=0.88;entryY=0.92;entryDx=0;entryDy=0;entryPerimeter=0;" edge="1" parent="1" source="w8u5icsETcRtnx7S4hsD-61" target="w8u5icsETcRtnx7S4hsD-65">
          <mxGeometry width="50" height="50" relative="1" as="geometry">
            <mxPoint x="1701.5" y="206" as="sourcePoint" />
            <mxPoint x="1751.5" y="156" as="targetPoint" />
          </mxGeometry>
        </mxCell>
        <mxCell id="w8u5icsETcRtnx7S4hsD-70" value="" style="endArrow=none;html=1;rounded=0;exitX=1;exitY=0;exitDx=0;exitDy=0;exitPerimeter=0;" edge="1" parent="1" source="w8u5icsETcRtnx7S4hsD-66" target="w8u5icsETcRtnx7S4hsD-60">
          <mxGeometry width="50" height="50" relative="1" as="geometry">
            <mxPoint x="1701.5" y="206" as="sourcePoint" />
            <mxPoint x="1751.5" y="156" as="targetPoint" />
          </mxGeometry>
        </mxCell>
        <mxCell id="w8u5icsETcRtnx7S4hsD-71" value="L3" style="text;html=1;align=center;verticalAlign=middle;resizable=0;points=[];autosize=1;strokeColor=none;fillColor=none;" vertex="1" parent="1">
          <mxGeometry x="1411.5" y="38" width="40" height="30" as="geometry" />
        </mxCell>
        <mxCell id="w8u5icsETcRtnx7S4hsD-72" value="L3" style="text;html=1;align=center;verticalAlign=middle;resizable=0;points=[];autosize=1;strokeColor=none;fillColor=none;" vertex="1" parent="1">
          <mxGeometry x="1411.5" y="187" width="40" height="30" as="geometry" />
        </mxCell>
        <mxCell id="w8u5icsETcRtnx7S4hsD-73" value="L3" style="text;html=1;align=center;verticalAlign=middle;resizable=0;points=[];autosize=1;strokeColor=none;fillColor=none;" vertex="1" parent="1">
          <mxGeometry x="1491.5" y="125" width="40" height="30" as="geometry" />
        </mxCell>
        <mxCell id="w8u5icsETcRtnx7S4hsD-76" value="L3" style="text;html=1;align=center;verticalAlign=middle;resizable=0;points=[];autosize=1;strokeColor=none;fillColor=none;" vertex="1" parent="1">
          <mxGeometry x="1270" y="40" width="40" height="30" as="geometry" />
        </mxCell>
        <mxCell id="w8u5icsETcRtnx7S4hsD-77" value="L3" style="text;html=1;align=center;verticalAlign=middle;resizable=0;points=[];autosize=1;strokeColor=none;fillColor=none;" vertex="1" parent="1">
          <mxGeometry x="1270" y="214" width="40" height="30" as="geometry" />
        </mxCell>
      </root>
    </mxGraphModel>
  </diagram>
</mxfile>
